<svg xmlns="http://www.w3.org/2000/svg" viewBox="0 0 872 972" width="872" height="972" font-family="Segoe UI, Helvetica, Arial, sans-serif">
<rect width="872" height="972" fill="#ffffff"/>
<defs><marker id="op" viewBox="0 0 10 10" refX="9" refY="5" markerWidth="10" markerHeight="10" orient="auto-start-reverse"><path d="M0,0 L10,5 L0,10" fill="none" stroke="#333" stroke-width="1.5"/></marker></defs>
<text x="436" y="27" font-size="15.5" font-weight="600" fill="#111" text-anchor="middle">Diagram Kelas UC07: Melayani Resep Obat</text>
<path d="M 176.0,266.0 L 176.0,309.0 L 306.0,309.0 L 306.0,427.0 L 436.0,427.0 L 436.0,470.0" fill="none" stroke="#333" stroke-width="1.5"/>
<line x1="237.1" y1="601.0" x2="374.9" y2="531.0" stroke="#333" stroke-width="1.5"/>
<path d="M 436.0,470.0 L 436.0,427.0 L 566.0,427.0 L 566.0,177.0 L 696.0,177.0 L 696.0,134.0" fill="none" stroke="#333" stroke-width="1.5"/>
<path d="M 436.0,470.0 L 436.0,427.0 L 566.0,427.0 L 566.0,309.0 L 696.0,309.0 L 696.0,266.0" fill="none" stroke="#333" stroke-width="1.5"/>
<line x1="502.0" y1="500.0" x2="630.0" y2="500.0" stroke="#333" stroke-width="1.5"/>
<line x1="497.1" y1="531.0" x2="634.9" y2="601.0" stroke="#333" stroke-width="1.5"/>
<path d="M 436.0,530.0 L 436.0,573.0 L 566.0,573.0 L 566.0,691.0 L 696.0,691.0 L 696.0,734.0" fill="none" stroke="#333" stroke-width="1.5"/>
<path d="M 436.0,530.0 L 436.0,573.0 L 566.0,573.0 L 566.0,823.0 L 696.0,823.0 L 696.0,866.0" fill="none" stroke="#333" stroke-width="1.5"/>
<polygon points="696.0,135.0 689.5,143.0 696.0,151.0 702.5,143.0" fill="#ffffff" stroke="#333" stroke-width="1.5"/>
<line x1="696.0" y1="151.0" x2="696.0" y2="205.0" stroke="#333" stroke-width="1.5"/>
<text x="696" y="167" font-size="11" fill="#444" text-anchor="middle" style="paint-order:stroke;stroke:#fff;stroke-width:5px">1</text>
<text x="696" y="177" font-size="11" fill="#444" text-anchor="middle" style="paint-order:stroke;stroke:#fff;stroke-width:5px">0..*</text>
<polygon points="696.0,267.0 689.5,275.0 696.0,283.0 702.5,275.0" fill="#333" stroke="#333" stroke-width="1.5"/>
<line x1="696.0" y1="283.0" x2="696.0" y2="337.0" stroke="#333" stroke-width="1.5"/>
<text x="696" y="299" font-size="11" fill="#444" text-anchor="middle" style="paint-order:stroke;stroke:#fff;stroke-width:5px">1</text>
<text x="696" y="309" font-size="11" fill="#444" text-anchor="middle" style="paint-order:stroke;stroke:#fff;stroke-width:5px">1..*</text>
<line x1="696.0" y1="399.0" x2="696.0" y2="469.0" stroke="#333" stroke-width="1.5"/>
<text x="696" y="415" font-size="11" fill="#444" text-anchor="middle" style="paint-order:stroke;stroke:#fff;stroke-width:5px">0..*</text>
<text x="696" y="441" font-size="11" fill="#444" text-anchor="middle" style="paint-order:stroke;stroke:#fff;stroke-width:5px">1</text>
<polygon points="696.0,531.0 689.5,539.0 696.0,547.0 702.5,539.0" fill="#ffffff" stroke="#333" stroke-width="1.5"/>
<line x1="696.0" y1="547.0" x2="696.0" y2="601.0" stroke="#333" stroke-width="1.5"/>
<text x="696" y="563" font-size="11" fill="#444" text-anchor="middle" style="paint-order:stroke;stroke:#fff;stroke-width:5px">1</text>
<text x="696" y="573" font-size="11" fill="#444" text-anchor="middle" style="paint-order:stroke;stroke:#fff;stroke-width:5px">0..*</text>
<line x1="696.0" y1="795.0" x2="696.0" y2="865.0" stroke="#333" stroke-width="1.5" stroke-dasharray="7,5" marker-end="url(#op)"/>
<rect x="102.4" y="206.0" width="147.2" height="60.0" rx="3" fill="#e8f2fd" stroke="#2f6fae" stroke-width="1.6"/>
<text x="176.0" y="226.0" font-size="11" fill="#555" text-anchor="middle" font-style="italic">&#171;boundary&#187;</text>
<text x="176.0" y="248.0" font-size="13.5" fill="#111" text-anchor="middle" font-weight="600">AntreanResepForm</text>
<rect x="94.2" y="602.0" width="163.6" height="60.0" rx="3" fill="#e8f2fd" stroke="#2f6fae" stroke-width="1.6"/>
<text x="176.0" y="622.0" font-size="11" fill="#555" text-anchor="middle" font-style="italic">&#171;boundary&#187;</text>
<text x="176.0" y="644.0" font-size="13.5" fill="#111" text-anchor="middle" font-weight="600">PenyerahanObatForm</text>
<rect x="371.0" y="470.0" width="130.0" height="60.0" rx="3" fill="#fdf2e0" stroke="#b5801f" stroke-width="1.6"/>
<text x="436.0" y="490.0" font-size="11" fill="#555" text-anchor="middle" font-style="italic">&#171;control&#187;</text>
<text x="436.0" y="512.0" font-size="13.5" fill="#111" text-anchor="middle" font-weight="600">ApotekManager</text>
<rect x="631.0" y="74.0" width="130.0" height="60.0" rx="3" fill="#e9f6ec" stroke="#2f7d46" stroke-width="1.6"/>
<text x="696.0" y="94.0" font-size="11" fill="#555" text-anchor="middle" font-style="italic">&#171;entity&#187;</text>
<text x="696.0" y="116.0" font-size="13.5" fill="#111" text-anchor="middle" font-weight="600">AntreanEntity</text>
<rect x="631.0" y="206.0" width="130.0" height="60.0" rx="3" fill="#e9f6ec" stroke="#2f7d46" stroke-width="1.6"/>
<text x="696.0" y="226.0" font-size="11" fill="#555" text-anchor="middle" font-style="italic">&#171;entity&#187;</text>
<text x="696.0" y="248.0" font-size="13.5" fill="#111" text-anchor="middle" font-weight="600">ResepEntity</text>
<rect x="626.5" y="338.0" width="139.0" height="60.0" rx="3" fill="#e9f6ec" stroke="#2f7d46" stroke-width="1.6"/>
<text x="696.0" y="358.0" font-size="11" fill="#555" text-anchor="middle" font-style="italic">&#171;entity&#187;</text>
<text x="696.0" y="380.0" font-size="13.5" fill="#111" text-anchor="middle" font-weight="600">ItemResepEntity</text>
<rect x="631.0" y="470.0" width="130.0" height="60.0" rx="3" fill="#e9f6ec" stroke="#2f7d46" stroke-width="1.6"/>
<text x="696.0" y="490.0" font-size="11" fill="#555" text-anchor="middle" font-style="italic">&#171;entity&#187;</text>
<text x="696.0" y="512.0" font-size="13.5" fill="#111" text-anchor="middle" font-weight="600">ObatEntity</text>
<rect x="630.6" y="602.0" width="130.8" height="60.0" rx="3" fill="#e9f6ec" stroke="#2f7d46" stroke-width="1.6"/>
<text x="696.0" y="622.0" font-size="11" fill="#555" text-anchor="middle" font-style="italic">&#171;entity&#187;</text>
<text x="696.0" y="644.0" font-size="13.5" fill="#111" text-anchor="middle" font-weight="600">BetsObatEntity</text>
<rect x="626.5" y="734.0" width="139.0" height="60.0" rx="3" fill="#e9f6ec" stroke="#2f7d46" stroke-width="1.6"/>
<text x="696.0" y="754.0" font-size="11" fill="#555" text-anchor="middle" font-style="italic">&#171;entity&#187;</text>
<text x="696.0" y="776.0" font-size="13.5" fill="#111" text-anchor="middle" font-weight="600">KunjunganEntity</text>
<rect x="622.4" y="866.0" width="147.2" height="60.0" rx="3" fill="#e9f6ec" stroke="#2f7d46" stroke-width="1.6"/>
<text x="696.0" y="886.0" font-size="11" fill="#555" text-anchor="middle" font-style="italic">&#171;entity&#187;</text>
<text x="696.0" y="908.0" font-size="13.5" fill="#111" text-anchor="middle" font-weight="600">BundelFHIREntity</text>
</svg>
