<svg xmlns="http://www.w3.org/2000/svg" viewBox="0 0 838 302" width="838" height="302" font-family="Segoe UI, Helvetica, Arial, sans-serif">
<rect width="838" height="302" fill="#ffffff"/>
<defs><marker id="op" viewBox="0 0 10 10" refX="9" refY="5" markerWidth="10" markerHeight="10" orient="auto-start-reverse"><path d="M0,0 L10,5 L0,10" fill="none" stroke="#333" stroke-width="1.5"/></marker></defs>
<text x="419" y="26" font-size="15" font-weight="600" fill="#111" text-anchor="middle">Diagram Kelas UC11: Melakukan Sinkronisasi SATUSEHAT</text>
<line x1="252.5" y1="92.0" x2="335.5" y2="92.0" stroke="#333" stroke-width="1.5" marker-end="url(#op)"/>
<text x="294" y="85" font-size="11" fill="#444" text-anchor="middle"><tspan dy="0" style="paint-order:stroke;stroke:#fff;stroke-width:5px">menjalankan</tspan></text>
<polygon points="419.0,115.0 413.0,122.5 419.0,130.0 425.0,122.5" fill="#ffffff" stroke="#333" stroke-width="1.5"/>
<line x1="419.0" y1="130.0" x2="419.0" y2="199.0" stroke="#333" stroke-width="1.5"/>
<text x="419" y="146" font-size="11" fill="#444" text-anchor="middle" style="paint-order:stroke;stroke:#fff;stroke-width:5px">1</text>
<text x="419" y="171" font-size="11" fill="#444" text-anchor="middle" style="paint-order:stroke;stroke:#fff;stroke-width:5px">0..*</text>
<line x1="502.5" y1="92.0" x2="605.5" y2="92.0" stroke="#333" stroke-width="1.5" stroke-dasharray="7,5" marker-end="url(#op)"/>
<text x="554" y="85" font-size="11" fill="#444" text-anchor="middle"><tspan dy="0" style="paint-order:stroke;stroke:#fff;stroke-width:5px">mengirim</tspan></text>
<line x1="230.0" y1="222.0" x2="358.0" y2="222.0" stroke="#333" stroke-width="1.5" stroke-dasharray="7,5" marker-end="url(#op)"/>
<text x="294" y="215" font-size="11" fill="#444" text-anchor="middle"><tspan dy="0" style="paint-order:stroke;stroke:#fff;stroke-width:5px">membundel</tspan></text>
<rect x="86.5" y="70.0" width="165.0" height="44.0" rx="3" fill="#eef4fb" stroke="#333" stroke-width="1.6"/>
<text x="169.0" y="97.0" font-size="13.5" fill="#111" text-anchor="middle" font-weight="600">PetugasAdministrasi</text>
<rect x="336.5" y="70.0" width="165.0" height="44.0" rx="3" fill="#eef4fb" stroke="#333" stroke-width="1.6"/>
<text x="419.0" y="97.0" font-size="13.5" fill="#111" text-anchor="middle" font-weight="600">AntreanSinkronisasi</text>
<rect x="606.5" y="70.0" width="125.0" height="44.0" rx="3" fill="#eef4fb" stroke="#333" stroke-width="1.6"/>
<text x="669.0" y="97.0" font-size="13.5" fill="#111" text-anchor="middle" font-weight="600">KlienSATUSEHAT</text>
<rect x="109.0" y="200.0" width="120.0" height="44.0" rx="3" fill="#eef4fb" stroke="#333" stroke-width="1.6"/>
<text x="169.0" y="227.0" font-size="13.5" fill="#111" text-anchor="middle" font-weight="600">Kunjungan</text>
<rect x="359.0" y="200.0" width="120.0" height="44.0" rx="3" fill="#eef4fb" stroke="#333" stroke-width="1.6"/>
<text x="419.0" y="227.0" font-size="13.5" fill="#111" text-anchor="middle" font-weight="600">BundelFHIR</text>
</svg>
